<?xml version="1.0" encoding="UTF-8"?>
<svg width="12px" height="13px" viewBox="0 0 12 13" version="1.1" xmlns="http://www.w3.org/2000/svg" xmlns:xlink="http://www.w3.org/1999/xlink">
    <!-- Generator: Sketch 61 (89581) - https://sketch.com -->
    <title>Shape</title>
    <desc>Created with Sketch.</desc>
    <g id="In-Progress---Personnel---SW" stroke="none" stroke-width="1" fill="none" fill-rule="evenodd" fill-opacity="0.38">
        <g id="Personnel--Availability-Chart-NOV28" transform="translate(-842.000000, -554.000000)" fill="#000000" fill-rule="nonzero">
            <g id="Group-30" transform="translate(40.000000, 281.000000)">
                <g id="Group-25">
                    <g transform="translate(800.000000, 166.000000)">
                        <g id="Group-23">
                            <g id="Group-21" transform="translate(2.000000, 0.000000)">
                                <g id="Group" transform="translate(0.000000, 2.000000)">
                                    <g id="wb_sunny-24px" transform="translate(0.000000, 105.000000)">
                                        <path d="M3.14181818,2.64 L2.16,1.66363636 L1.39090909,2.43272727 L2.36727273,3.40909091 L3.14181818,2.64 Z M1.63636364,5.72727273 L0,5.72727273 L0,6.81818182 L1.63636364,6.81818182 L1.63636364,5.72727273 Z M6.54545455,0.3 L5.45454545,0.3 L5.45454545,1.90909091 L6.54545455,1.90909091 L6.54545455,0.3 L6.54545455,0.3 Z M10.6090909,2.43272727 L9.84,1.66363636 L8.86363636,2.64 L9.63272727,3.40909091 L10.6090909,2.43272727 Z M8.85818182,9.90545455 L9.83454545,10.8872727 L10.6036364,10.1181818 L9.62181818,9.14181818 L8.85818182,9.90545455 Z M10.3636364,5.72727273 L10.3636364,6.81818182 L12,6.81818182 L12,5.72727273 L10.3636364,5.72727273 Z M6,3 C4.19454545,3 2.72727273,4.46727273 2.72727273,6.27272727 C2.72727273,8.07818182 4.19454545,9.54545455 6,9.54545455 C7.80545455,9.54545455 9.27272727,8.07818182 9.27272727,6.27272727 C9.27272727,4.46727273 7.80545455,3 6,3 Z M5.45454545,12.2454545 L6.54545455,12.2454545 L6.54545455,10.6363636 L5.45454545,10.6363636 L5.45454545,12.2454545 Z M1.39090909,10.1127273 L2.16,10.8818182 L3.13636364,9.9 L2.36727273,9.13090909 L1.39090909,10.1127273 Z" id="Shape"></path>
                                    </g>
                                </g>
                            </g>
                        </g>
                    </g>
                </g>
            </g>
        </g>
    </g>
</svg>